<svg width="217" height="38" viewBox="0 0 217 38" fill="none" xmlns="http://www.w3.org/2000/svg">
<path d="M12.58 29.6C10.3667 29.6 8.38 29.12 6.62 28.16C4.87333 27.2 3.48667 25.8933 2.46 24.24C1.44667 22.5733 0.94 20.6933 0.94 18.6C0.94 17.04 1.24 15.5933 1.84 14.26C2.44 12.9267 3.28 11.76 4.36 10.76C5.44 9.76 6.7 8.98667 8.14 8.44C9.58 7.88 11.14 7.6 12.82 7.6C14.4867 7.6 16.04 7.83333 17.48 8.3C18.92 8.76667 20.2067 9.45333 21.34 10.36L17.94 16.24C17.26 15.6 16.5333 15.1333 15.76 14.84C15 14.5467 14.2067 14.4 13.38 14.4C12.42 14.4 11.6 14.5667 10.92 14.9C10.24 15.22 9.72 15.6933 9.36 16.32C9 16.9467 8.82 17.7067 8.82 18.6C8.82 19.92 9.22667 20.9533 10.04 21.7C10.8533 22.4333 11.98 22.8 13.42 22.8C14.34 22.8 15.2133 22.6267 16.04 22.28C16.88 21.9333 17.6867 21.4 18.46 20.68L21.5 26.72C20.3 27.6133 18.9 28.32 17.3 28.84C15.7133 29.3467 14.14 29.6 12.58 29.6ZM34.3016 29.6C31.9816 29.6 29.9349 29.1 28.1616 28.1C26.4016 27.1 25.0216 25.7667 24.0216 24.1C23.0349 22.4333 22.5416 20.6 22.5416 18.6C22.5416 17.16 22.8216 15.78 23.3816 14.46C23.9549 13.14 24.7616 11.9667 25.8016 10.94C26.8549 9.91333 28.1016 9.1 29.5416 8.5C30.9816 7.9 32.5682 7.6 34.3016 7.6C36.6216 7.6 38.6616 8.1 40.4216 9.1C42.1949 10.1 43.5749 11.4333 44.5616 13.1C45.5616 14.7667 46.0616 16.6 46.0616 18.6C46.0616 20.04 45.7749 21.42 45.2016 22.74C44.6416 24.06 43.8349 25.2333 42.7816 26.26C41.7416 27.2867 40.5016 28.1 39.0616 28.7C37.6349 29.3 36.0482 29.6 34.3016 29.6ZM34.3016 22.8C35.0482 22.8 35.7216 22.6333 36.3216 22.3C36.9349 21.9533 37.4149 21.4667 37.7616 20.84C38.1216 20.2133 38.3016 19.4667 38.3016 18.6C38.3016 17.7333 38.1282 16.9867 37.7816 16.36C37.4349 15.7333 36.9549 15.2533 36.3416 14.92C35.7416 14.5733 35.0616 14.4 34.3016 14.4C33.5416 14.4 32.8549 14.5733 32.2416 14.92C31.6416 15.2533 31.1682 15.7333 30.8216 16.36C30.4749 16.9867 30.3016 17.7333 30.3016 18.6C30.3016 19.4667 30.4749 20.2133 30.8216 20.84C31.1816 21.4667 31.6616 21.9533 32.2616 22.3C32.8749 22.6333 33.5549 22.8 34.3016 22.8ZM59.8875 29.6C57.5675 29.6 55.5208 29.1 53.7475 28.1C51.9875 27.1 50.6075 25.7667 49.6075 24.1C48.6208 22.4333 48.1275 20.6 48.1275 18.6C48.1275 17.16 48.4075 15.78 48.9675 14.46C49.5408 13.14 50.3475 11.9667 51.3875 10.94C52.4408 9.91333 53.6875 9.1 55.1275 8.5C56.5675 7.9 58.1542 7.6 59.8875 7.6C62.2075 7.6 64.2475 8.1 66.0075 9.1C67.7808 10.1 69.1608 11.4333 70.1475 13.1C71.1475 14.7667 71.6475 16.6 71.6475 18.6C71.6475 20.04 71.3608 21.42 70.7875 22.74C70.2275 24.06 69.4208 25.2333 68.3675 26.26C67.3275 27.2867 66.0875 28.1 64.6475 28.7C63.2208 29.3 61.6342 29.6 59.8875 29.6ZM59.8875 22.8C60.6342 22.8 61.3075 22.6333 61.9075 22.3C62.5208 21.9533 63.0008 21.4667 63.3475 20.84C63.7075 20.2133 63.8875 19.4667 63.8875 18.6C63.8875 17.7333 63.7142 16.9867 63.3675 16.36C63.0208 15.7333 62.5408 15.2533 61.9275 14.92C61.3275 14.5733 60.6475 14.4 59.8875 14.4C59.1275 14.4 58.4408 14.5733 57.8275 14.92C57.2275 15.2533 56.7542 15.7333 56.4075 16.36C56.0608 16.9867 55.8875 17.7333 55.8875 18.6C55.8875 19.4667 56.0608 20.2133 56.4075 20.84C56.7675 21.4667 57.2475 21.9533 57.8475 22.3C58.4608 22.6333 59.1408 22.8 59.8875 22.8ZM75.0781 29V0.199999H83.0781V14.12L88.1181 8.2H97.3181L90.0781 16.88L97.6781 29H88.2781L84.2781 22.12L83.0781 23.48V29H75.0781ZM100.391 29V8.2H108.391V10.36C108.911 9.41333 109.657 8.71333 110.631 8.26C111.604 7.79333 112.677 7.56 113.851 7.56C114.344 7.56 114.764 7.59333 115.111 7.66C115.471 7.71333 115.824 7.77333 116.171 7.84L115.271 16.04C114.777 15.84 114.244 15.6867 113.671 15.58C113.111 15.46 112.551 15.4 111.991 15.4C110.951 15.4 110.091 15.68 109.411 16.24C108.731 16.8 108.391 17.68 108.391 18.88V29H100.391ZM124.864 29.6C123.531 29.6 122.311 29.3333 121.204 28.8C120.098 28.2667 119.211 27.5 118.544 26.5C117.878 25.4867 117.544 24.2667 117.544 22.84C117.544 21.6 117.844 20.5133 118.444 19.58C119.058 18.6467 119.958 17.8867 121.144 17.3C122.331 16.7 123.798 16.2933 125.544 16.08C127.304 15.8667 129.331 15.8533 131.624 16.04L131.664 20.8C130.758 20.6 129.891 20.48 129.064 20.44C128.238 20.3867 127.504 20.42 126.864 20.54C126.224 20.66 125.718 20.8733 125.344 21.18C124.971 21.4733 124.784 21.8733 124.784 22.38C124.784 22.9267 125.004 23.3333 125.444 23.6C125.884 23.8667 126.458 24 127.164 24C127.804 24 128.378 23.8933 128.884 23.68C129.404 23.4667 129.818 23.14 130.124 22.7C130.431 22.2467 130.584 21.6667 130.584 20.96V16.72C130.584 16.08 130.458 15.5133 130.204 15.02C129.951 14.5133 129.524 14.12 128.924 13.84C128.324 13.5467 127.491 13.4 126.424 13.4C125.358 13.4 124.298 13.56 123.244 13.88C122.204 14.2 121.291 14.6533 120.504 15.24L118.544 9.92C119.931 9.08 121.431 8.45333 123.044 8.04C124.658 7.61333 126.251 7.4 127.824 7.4C129.811 7.4 131.584 7.72 133.144 8.36C134.704 8.98667 135.931 9.98 136.824 11.34C137.731 12.6867 138.184 14.44 138.184 16.6V29H131.384V26.96C130.744 27.8 129.864 28.4533 128.744 28.92C127.624 29.3733 126.331 29.6 124.864 29.6ZM142.93 29V8.2H150.93V10.12C151.65 9.25333 152.503 8.62 153.49 8.22C154.49 7.80667 155.556 7.6 156.69 7.6C158.69 7.6 160.323 7.98667 161.59 8.76C162.87 9.53333 163.81 10.54 164.41 11.78C165.023 13.02 165.33 14.3467 165.33 15.76V29H157.33V18.28C157.33 17.1733 157.07 16.32 156.55 15.72C156.043 15.1067 155.25 14.8 154.17 14.8C153.476 14.8 152.89 14.9467 152.41 15.24C151.93 15.5333 151.563 15.9467 151.31 16.48C151.056 17 150.93 17.6 150.93 18.28V29H142.93ZM178.157 38C176.611 38 175.211 37.8733 173.957 37.62C172.704 37.3667 171.631 36.9933 170.737 36.5C169.844 36.02 169.157 35.4333 168.677 34.74C168.197 34.06 167.957 33.2933 167.957 32.44C167.957 31.8 168.137 31.1867 168.497 30.6C168.871 30.0133 169.391 29.5 170.057 29.06C170.737 28.6333 171.544 28.32 172.477 28.12C171.717 27.6533 171.157 27.1333 170.797 26.56C170.451 25.9733 170.277 25.32 170.277 24.6C170.277 23.9333 170.477 23.2933 170.877 22.68C171.277 22.0667 171.831 21.52 172.537 21.04C173.257 20.56 174.084 20.1867 175.017 19.92C175.964 19.6533 176.984 19.5467 178.077 19.6L179.397 22.44C178.691 22.4267 178.131 22.46 177.717 22.54C177.317 22.6067 177.031 22.7133 176.857 22.86C176.684 23.0067 176.597 23.1733 176.597 23.36C176.597 23.5733 176.737 23.7667 177.017 23.94C177.311 24.1133 177.917 24.24 178.837 24.32L182.397 24.64C184.091 24.8 185.577 25.0933 186.857 25.52C188.137 25.9333 189.131 26.54 189.837 27.34C190.557 28.1267 190.917 29.16 190.917 30.44C190.917 31.5333 190.617 32.54 190.017 33.46C189.417 34.3933 188.557 35.1933 187.437 35.86C186.317 36.54 184.971 37.0667 183.397 37.44C181.837 37.8133 180.091 38 178.157 38ZM179.437 33.16C180.757 33.16 181.804 33.0067 182.577 32.7C183.364 32.4067 183.757 32.0133 183.757 31.52C183.757 31.12 183.551 30.8267 183.137 30.64C182.737 30.4533 182.064 30.32 181.117 30.24L177.077 29.92C176.571 29.9867 176.137 30.0933 175.777 30.24C175.431 30.3867 175.164 30.56 174.977 30.76C174.804 30.9733 174.717 31.2 174.717 31.44C174.717 31.7867 174.911 32.0867 175.297 32.34C175.684 32.6067 176.231 32.8067 176.937 32.94C177.644 33.0867 178.477 33.16 179.437 33.16ZM179.037 22.6C177.131 22.6 175.464 22.2733 174.037 21.62C172.611 20.9533 171.497 20.0533 170.697 18.92C169.911 17.7867 169.517 16.5067 169.517 15.08C169.517 13.6933 169.917 12.4333 170.717 11.3C171.531 10.1667 172.651 9.26667 174.077 8.6C175.517 7.93333 177.171 7.6 179.037 7.6C180.891 7.6 182.531 7.93333 183.957 8.6C185.384 9.25333 186.497 10.1467 187.297 11.28C188.111 12.4 188.517 13.6667 188.517 15.08C188.517 16.4667 188.117 17.7333 187.317 18.88C186.531 20.0133 185.424 20.92 183.997 21.6C182.584 22.2667 180.931 22.6 179.037 22.6ZM179.037 17.4C179.584 17.4 180.084 17.3 180.537 17.1C180.991 16.9 181.351 16.6267 181.617 16.28C181.897 15.9333 182.037 15.5333 182.037 15.08C182.037 14.4 181.744 13.8467 181.157 13.42C180.571 12.98 179.864 12.76 179.037 12.76C178.477 12.76 177.971 12.86 177.517 13.06C177.064 13.26 176.704 13.5333 176.437 13.88C176.171 14.2267 176.037 14.6267 176.037 15.08C176.037 15.76 176.324 16.32 176.897 16.76C177.484 17.1867 178.197 17.4 179.037 17.4ZM182.077 14.04L179.037 9L192.117 8.2V14.44L182.077 14.04ZM205.08 29.6C202.747 29.6 200.707 29.14 198.96 28.22C197.213 27.3 195.853 26.0133 194.88 24.36C193.92 22.7067 193.44 20.7733 193.44 18.56C193.44 16.9467 193.72 15.4733 194.28 14.14C194.853 12.7933 195.653 11.6333 196.68 10.66C197.72 9.68667 198.94 8.93333 200.34 8.4C201.753 7.86667 203.307 7.6 205 7.6C206.893 7.6 208.573 7.93333 210.04 8.6C211.52 9.26667 212.74 10.2 213.7 11.4C214.66 12.5867 215.313 13.9867 215.66 15.6C216.007 17.2 215.987 18.9467 215.6 20.84H200.6C200.653 21.3867 200.88 21.8667 201.28 22.28C201.693 22.6933 202.24 23.02 202.92 23.26C203.6 23.4867 204.373 23.6 205.24 23.6C206.507 23.6 207.687 23.4533 208.78 23.16C209.873 22.8667 210.96 22.4 212.04 21.76L214.36 27.04C213.747 27.5067 212.913 27.9333 211.86 28.32C210.807 28.7067 209.68 29.0133 208.48 29.24C207.28 29.48 206.147 29.6 205.08 29.6ZM201.12 15.64H208.08C208.08 14.92 207.773 14.3333 207.16 13.88C206.547 13.4267 205.747 13.2 204.76 13.2C203.747 13.2 202.9 13.4267 202.22 13.88C201.553 14.3333 201.187 14.92 201.12 15.64Z" fill="#FFB33A"/>
</svg>
