<svg width="59" height="76" viewBox="0 0 59 76" fill="none" xmlns="http://www.w3.org/2000/svg">
<path d="M57.0957 40.2298C51.305 25.1076 30.6871 24.2921 35.6664 2.31299C36.0352 0.682157 34.3017 -0.578031 32.9001 0.274449C19.5114 8.20622 9.88478 24.1068 17.9623 44.937C18.6262 46.642 16.6345 48.2357 15.196 47.1238C8.52009 42.046 7.8193 34.7443 8.40944 29.5182C8.63074 27.5909 6.12266 26.6643 5.05304 28.258C2.54496 32.1127 0 38.3395 0 47.7168C1.40157 68.4729 18.8475 74.8479 25.1177 75.6633C34.0804 76.8123 43.7807 75.1444 50.7517 68.7323C58.4235 61.5789 61.2266 50.1631 57.0957 40.2298ZM22.8678 58.8732C28.179 57.5759 30.9084 53.7212 31.6461 50.3113C32.8632 45.0111 28.1052 39.8221 31.3141 31.4456C32.5313 38.3766 43.375 42.7131 43.375 50.2743C43.6701 59.6515 33.564 67.6945 22.8678 58.8732Z" fill="#FFB33A"/>
</svg>
